<svg xmlns="http://www.w3.org/2000/svg" xmlns:xlink="http://www.w3.org/1999/xlink" viewBox="0 0 1257.04 958.51"><defs><linearGradient id="linear-gradient" x1="181" y1="685.79" x2="1138.51" y2="685.79" gradientTransform="translate(-32.04 -207.54)" gradientUnits="userSpaceOnUse"><stop offset="0.29" stop-color="#0071bc" stop-opacity="0.77"/><stop offset="0.56" stop-color="#fff" stop-opacity="0.65"/><stop offset="0.63" stop-color="#f9f9f9" stop-opacity="0.64"/><stop offset="0.7" stop-color="#e9e9e9" stop-opacity="0.6"/><stop offset="0.77" stop-color="#cdcdcd" stop-opacity="0.54"/><stop offset="0.84" stop-color="#a6a6a6" stop-opacity="0.46"/><stop offset="0.91" stop-color="#737373" stop-opacity="0.35"/><stop offset="0.97" stop-color="#363636" stop-opacity="0.22"/><stop offset="1" stop-color="#1b1b1b" stop-opacity="0.16"/></linearGradient><linearGradient id="linear-gradient-2" x1="659.75" y1="1313.58" x2="659.75" y2="58" xlink:href="#linear-gradient"/><pattern id="_10_dpi_60_" data-name="10 dpi 60%" width="28.8" height="28.8" patternUnits="userSpaceOnUse" viewBox="0 0 28.8 28.8"><rect width="28.8" height="28.8" style="fill:none"/><circle cx="28.8" cy="28.8" r="4.32" style="fill:#231f20"/><circle cx="14.4" cy="28.8" r="4.32" style="fill:#231f20"/><circle cx="28.8" cy="14.4" r="4.32" style="fill:#231f20"/><circle cx="14.4" cy="14.4" r="4.32" style="fill:#231f20"/><circle cx="7.2" cy="21.6" r="4.32" style="fill:#231f20"/><circle cx="21.6" cy="21.6" r="4.32" style="fill:#231f20"/><circle cx="7.2" cy="7.2" r="4.32" style="fill:#231f20"/><circle cx="21.6" cy="7.2" r="4.32" style="fill:#231f20"/><circle cy="28.8" r="4.32" style="fill:#231f20"/><circle cy="14.4" r="4.32" style="fill:#231f20"/><circle cx="28.8" r="4.32" style="fill:#231f20"/><circle cx="14.4" r="4.32" style="fill:#231f20"/><circle r="4.32" style="fill:#231f20"/></pattern><linearGradient id="linear-gradient-3" x1="-9171.06" y1="339.38" x2="4960.78" y2="339.38" gradientTransform="matrix(-0.06, -0.01, 0.19, -0.87, 605.23, 537.5)" gradientUnits="userSpaceOnUse"><stop offset="0" stop-color="#fff" stop-opacity="0.77"/><stop offset="0.2" stop-color="#fff" stop-opacity="0.65"/><stop offset="0.34" stop-color="#fff" stop-opacity="0.65"/><stop offset="0.35" stop-color="#fff" stop-opacity="0.65"/><stop offset="0.37" stop-color="#fff" stop-opacity="0.62"/><stop offset="0.4" stop-color="#fff" stop-opacity="0.53"/><stop offset="0.43" stop-color="#fff" stop-opacity="0.39"/><stop offset="0.47" stop-color="#fff" stop-opacity="0.2"/><stop offset="0.51" stop-color="#fff" stop-opacity="0"/><stop offset="0.59" stop-color="#7e7e7e" stop-opacity="0.09"/><stop offset="1" stop-color="#1b1b1b" stop-opacity="0.16"/></linearGradient><linearGradient id="linear-gradient-4" x1="465.26" y1="627.07" x2="465.26" y2="264.07" gradientUnits="userSpaceOnUse"><stop offset="0" stop-color="#656565"/><stop offset="0.62" stop-color="#1b1b1b"/><stop offset="0.63" stop-color="#545454"/><stop offset="0.98" stop-color="#3e3e3e"/></linearGradient><linearGradient id="White_Black" x1="27.19" y1="445.57" x2="903.33" y2="445.57" gradientUnits="userSpaceOnUse"><stop offset="0" stop-color="#fff"/><stop offset="1"/></linearGradient><linearGradient id="linear-gradient-5" x1="465.26" y1="264.07" x2="465.26" y2="627.07" gradientTransform="matrix(1, 0, 0, 1, 0, 0)" xlink:href="#linear-gradient-3"/><clipPath id="clip-path" transform="translate(1.06 1)"><rect x="427.14" y="670.43" width="433.86" height="153.72" style="fill:none"/></clipPath><clipPath id="clip-path-2" transform="translate(1.06 1)"><rect x="417.05" y="128.81" width="165.96" height="156.87" transform="translate(-41.15 217.7) rotate(-23.62)" style="fill:none"/></clipPath><clipPath id="clip-path-3" transform="translate(1.06 1)"><rect x="632.04" y="67.71" width="165.96" height="156.87" transform="translate(1.34 298.72) rotate(-23.62)" style="fill:none"/></clipPath><clipPath id="clip-path-4" transform="translate(1.06 1)"><rect x="806.59" y="136.53" width="165.96" height="156.87" transform="translate(-11.61 374.42) rotate(-23.62)" style="fill:none"/></clipPath><clipPath id="clip-path-5" transform="translate(1.06 1)"><rect x="970.23" y="172.61" width="165.96" height="156.87" transform="translate(-12.36 443) rotate(-23.62)" style="fill:none"/></clipPath></defs><title>slide1</title><g style="isolation:isolate"><g id="Layer_1" data-name="Layer 1"><rect x="148.96" y="-149.04" width="957.51" height="1254.58" transform="translate(1107.02 -148.46) rotate(90)" style="stroke-miterlimit:1;opacity:0.2;fill:url(#linear-gradient);stroke:url(#linear-gradient-2)"/><g id="back-cloud"><path d="M1184.69,374s45.27,40-117.63,31.61c201.12,159.83-213.28,92.24-182.38,57.13-183.14-124.94-312-26.38-381.94-88.71C145.63,44.9,618.46,147,618.46,147S641.82-44,827,129.6C903.8,88.45,987.5,175.93,987.5,175.93s95.58-39.46,169.91,38C1224.44,228.55,1196,310,1196,310s62.29,11,24.84,41.9C1228.65,388.6,1184.69,374,1184.69,374Z" transform="translate(1.06 1)" style="opacity:0.51;mix-blend-mode:screen;fill:url(#_10_dpi_60_)"/><path d="M1184.69,374s45.27,40-117.63,31.61c201.12,159.83-213.28,92.24-182.38,57.13-183.14-124.94-312-26.38-381.94-88.71C145.63,44.9,618.46,147,618.46,147S641.82-44,827,129.6C903.8,88.45,987.5,175.93,987.5,175.93s95.58-39.46,169.91,38C1224.44,228.55,1196,310,1196,310s62.29,11,24.84,41.9C1228.65,388.6,1184.69,374,1184.69,374Z" transform="translate(1.06 1)" style="opacity:0.7000000000000001;mix-blend-mode:screen;fill:url(#linear-gradient-3)"/><g style="opacity:0.49;mix-blend-mode:screen"><path d="M1045.53,489a455,455,0,0,1-82.46-8.22c-21.74-4.07-44.4-8.94-64.47-18.55-5.47-2.62-14.6-6.74-15.23-13.72v36a7.35,7.35,0,0,1,1.83-3.81c.42-.47.13-5.4.13-5.27,0-4.24.05-8.49.05-12.73s0-8.49-.05-12.73c0-.77.38-4.92-.13-5.27C832,408.34,771.5,384.41,707.12,378.34c-29.34-2.76-58.78-1.89-88.18-.64-32.87,1.39-70.09,5-100.28-11-16.22-8.59-29.16-23.3-42.15-36-12.65-12.35-25-25-36.93-38.07-18.64-20.47-36.57-42-50.78-65.88-9.3-15.59-17.54-32.82-19-51.16-1.07-13.62-1.45,42.34.12,26.66a45.16,45.16,0,0,1,.86-5.33,42,42,0,0,1,3.59-10c4.23-8.25,11.18-14.68,19.05-19.41,24-14.41,54.81-16.52,82-17.05,35.38-.69,70.85,2.93,105.79,8.29,10.46,1.6,20.89,3.39,31.28,5.42,1.14.22,4.53,1.56,5.67,1.15s.9-2.41,1.16-3.89c4.63-26.62,15.77-55.59,37.63-72.8,21.52-16.93,49-15.91,73.58-6.91,29.73,10.9,56,30.7,79.7,51.23q5.41,4.68,10.69,9.51c1.46,1.34,3.34,3.89,5.07,4.68,2,.9,1.75.36,4.29-.88a91.57,91.57,0,0,1,25.72-8.17c15.93-2.56,32.21-.73,47.6,3.87,25,7.47,47.88,21.62,68,38.09,5.06,4.15,9.57,9.11,14.69,13.13,1.17.92.7.87,2.06.75,3.13-.27,6.85-2.35,9.9-3.21,26.76-7.55,55.57-8.81,82.73-2.54a149.06,149.06,0,0,1,40.55,15.88,153.79,153.79,0,0,1,20.64,14.22q5.08,4.14,9.82,8.68c1.49,1.43,3.39,4.15,5.16,5.15a14.37,14.37,0,0,0,3.23.83c14.2,3.71,26.85,11.92,33.93,25a61.43,61.43,0,0,1,6.56,21.33c.28,2.14.38,4.28.56,6.43.2,2.32.93-38-.19-22.74-.25,3.41-.66,6.81-1.2,10.19a111,111,0,0,1-4.54,19.07c-1.09,3.11-.61,35.89,0,36a93.56,93.56,0,0,1,17.19,4.85c8,3.07,18.64,8.08,19.73,17.69l-.09-2.46,0,1.08.09-33.54c-.57,7.54-6.5,13.31-12,17.86-.36.3-.13,5.66-.13,5.27,0,4.24-.05,8.49-.05,12.73,0,5.7-1,12.39.18,18a31.59,31.59,0,0,1,.87,5.87l0-32.9c-.32,9.13-6.2,14.52-15.09,15.55a48.66,48.66,0,0,1-15.29-1c-1.37-.28-5.8-2.25-6.53-1-.46.81-.12,4.91-.13,5.27,0,4.24-.05,8.49-.05,12.73s0,8.49.05,12.73c0,.9-.45,4.74.13,5.27a17.42,17.42,0,0,1,5.61,10.28l-.13-5.27v1.31l.13-30.73c-1.66,12.4-20.57,15.41-30.19,17.09-30.74,5.37-62.91,3.85-93.92,2.24-.08,0-.18,16.66-.18,18,0,4.24,0,8.49.05,12.73,0,.83-.42,4.84.13,5.27,12.43,9.88,24.6,20.25,35.34,32,7.41,8.09,14.75,17.13,18.59,27.55a36.09,36.09,0,0,1,1.6,5.6c.17.9.24,1.81.39,2.71l0,.42,0-31.77c-.11.57-.12,1.16-.25,1.72a22.28,22.28,0,0,1-5.8,10.88c-7.81,8-19.84,11.26-30.46,13.35-13.1,2.57-26.54,3.34-39.87,3.34-.26,0-.27,36,0,36a209,209,0,0,0,39.24-3.21c11.41-2.18,25.06-5.75,32.68-15.26a21.23,21.23,0,0,0,4.57-12.16c.51-7.82.2-15.75.18-23.57,0-5.11.21-10.32-.26-15.41-1-10.72-7.53-20.4-14.07-28.58-12-15-26.89-27.67-41.88-39.58v36c29.84,1.55,60.48,2.81,90.14-1.63,9.84-1.47,27.29-3.58,32.77-13.69a12.43,12.43,0,0,0,1.26-5.56c.45-9.91.16-19.92.05-29.83-.07-6.42-.8-11.65-5.75-16.21v36c.75-1.3,11.9,1.91,14,2.08,6.38.5,14.13.09,18.88-4.82,5.11-5.27,4.14-13.69,4.18-20.36.07-11.58,1.33-24-1.12-35.41v36c4.11-3.39,8.32-7.34,10.58-12.27,2.89-6.28,1.6-14.6,1.6-21.2,0-11.17,3-24.33-6.77-32.11-8.34-6.65-20-10.07-30.35-11.91v36a112.49,112.49,0,0,0,4.81-20.81,175.84,175.84,0,0,0,1.42-24.41c.08-12.9.78-26.16-.77-39-1.8-14.87-8.18-29-20.53-37.92a60,60,0,0,0-20.81-9.34c-3.51-.88-5-3.27-7.63-5.8q-5.35-5.12-11.14-9.75a151.8,151.8,0,0,0-82.52-32.53,171.6,171.6,0,0,0-46.36,2.77,164.39,164.39,0,0,0-17.69,4.44c-1.45.46-5.11,2.57-6.65,2.31-.84-.14-1.87-1.56-2.55-2.23-2.26-2.19-4.59-4.32-7-6.4a247.55,247.55,0,0,0-25.9-19.94c-24.63-16.48-53.7-29.53-83.9-28.7a92.32,92.32,0,0,0-27.47,4.95,93.36,93.36,0,0,0-12.1,5.15c-2.23,1.14-1.63,1.09-3.44-.59q-3.23-3-6.5-6a412.42,412.42,0,0,0-44.42-35.4c-21.74-14.77-47-28.55-73.81-29.95-29.33-1.52-52.4,16-65.89,41a149.86,149.86,0,0,0-15.19,44.53c-.27,1.52-.18,4.26-1.3,4.67s-4.78-1-6-1.21a776.58,776.58,0,0,0-84.32-11.75c-35-2.91-71.77-4.26-106.13,4.14-19.72,4.82-41.69,14.37-49.32,34.8-4,10.81-3,23-3,34.23,0,12.5-.39,24.72,2.93,36.84,5.77,21.11,17.94,40.33,30.64,57.9,19.11,26.42,41.41,50.5,64.43,73.52q10.45,10.45,21.19,20.62c6.92,6.56,13.67,13.57,21.49,19.07,13.14,9.26,28.78,13.83,44.59,15.77,18.14,2.23,36.56,1.53,54.77.8,19.2-.77,38.39-1.72,57.62-1.62,59.47.32,117.24,12.84,170.43,39.89a431.09,431.09,0,0,1,47.63,28.35v-36c-1.68,1.91-1.87,3.82-1.92,6.27-.25,10.34-.27,20.74,0,31.08.11,4.11,1.05,6.56,4.08,9.26,6.35,5.65,15.08,8.9,22.94,11.77,26.49,9.68,54.87,14.88,82.78,18.38a428.81,428.81,0,0,0,52.45,3.54C1045.77,525,1045.84,489,1045.53,489Z" transform="translate(1.06 1)"/></g><path d="M1184.69,374s45.27,40-117.63,31.61c201.12,159.83-213.28,92.24-182.38,57.13-183.14-124.94-312-26.38-381.94-88.71C145.63,44.9,618.46,147,618.46,147S641.82-44,827,129.6C903.8,88.45,987.5,175.93,987.5,175.93s95.58-39.46,169.91,38C1224.44,228.55,1196,310,1196,310s62.29,11,24.84,41.9C1228.65,388.6,1184.69,374,1184.69,374Z" transform="translate(1.06 1)" style="fill:none;stroke:#717171;stroke-miterlimit:1;stroke-width:0.5878px"/><g style="opacity:0.58"><path d="M1184.69,374.1c3.66,3.25,6.79,8.69,5.44,13.68s-6.38,8.07-10.77,10.08c-10.43,4.76-22.47,6.23-33.76,7.33-26.05,2.53-52.44,1.72-78.54.39,0,0,0,.11,0,.12,15,12,29.95,24.76,41.83,40,6.43,8.22,13.14,18.32,13.47,29.14.61,19.9-23.33,26.82-38.91,29.61-27.14,4.87-55.59,3.25-82.84.23-27.58-3.05-55.31-8-81.79-16.44-9-2.88-18.27-6.11-26.45-11-3.69-2.22-10.54-6.48-9.16-11.77a6.62,6.62,0,0,1,1.47-2.58.43.43,0,0,0,0-.12c-46.53-31.6-98.47-54.39-154.23-63.16-40.43-6.36-81-4.74-121.73-3.14-29.65,1.17-62.42,3-89.6-11.12a83.42,83.42,0,0,1-18.24-13q-14.82-13.71-29.2-27.87c-16.18-16-31.9-32.46-46.64-49.78-19.37-22.77-38.66-47.64-49.52-75.8-6.23-16.16-9.64-35.25-.83-51.14,7.13-12.87,20.51-20.65,34-25.49,17.22-6.2,35.77-8.5,54-9.53a461.74,461.74,0,0,1,60.46,1c18.21,1.37,36.36,3.5,54.41,6.19,11.67,1.74,23.31,3.7,34.88,6,.88.17,5.19,1.71,6,1.22s1-5.36,1.15-6.31a149.79,149.79,0,0,1,15.28-43.49c9.77-17.8,24.71-33.13,44.85-38.38,30.85-8.05,63.23,7.53,88.57,23.77a342.24,342.24,0,0,1,30.32,22.07q8.62,7,16.89,14.34,4.1,3.64,8.14,7.37c1.25,1.16,2.6,3,4.09,2.88s3.76-1.89,5.07-2.48c20.13-9.12,42.56-10.12,63.9-5.07,32.67,7.73,62.69,27.44,86.89,50.3.85.81,2.89,3.67,4,3.89,1.38.26,4.79-1.73,6.11-2.15a170.2,170.2,0,0,1,37.52-7.28c45.89-3.82,90.41,11.83,123.21,44.38,1.16,1.16,2.22,2.53,3.65,3.22a23.64,23.64,0,0,0,3.66.92,67.92,67.92,0,0,1,7.26,2.45,54.82,54.82,0,0,1,11.92,6.58,48.27,48.27,0,0,1,14.73,17.74c7.29,14.93,7.44,32.49,5,48.59A111.63,111.63,0,0,1,1196,310a.85.85,0,0,0,0,.12,80.62,80.62,0,0,1,25.2,8.64c4.61,2.61,9.73,6.36,11.18,11.75,2.35,8.76-5.53,16.34-11.53,21.39a.36.36,0,0,0,0,.12c1.39,6.92,1.83,15.39-4,20.49-3.52,3.1-8.38,4.11-12.94,4.32a55,55,0,0,1-19.25-2.81s0,.12,0,.12c13.79,4.52,37,5.83,37.08-14.15,0-.38,0-.76,0-1.13-.05-1.5-.42-3-.45-4.48-.07-3.13,1.74-4.13,3.81-6.21,3.78-3.8,7.62-8.68,7.71-14.3.1-6.7-5.37-11.5-10.67-14.67-7.32-4.38-15.81-7-24.12-8.78-2-.42-1.69.14-1.72-1.22-.06-2,1.42-4.84,1.9-6.78,4.11-16.52,5.73-34.8,1-51.37-3.37-11.76-10.41-22.06-20.74-28.75a56.2,56.2,0,0,0-9.46-4.88c-3.7-1.5-9-2-12.15-4.14-4.16-2.91-7.72-7.6-11.62-10.94a158.27,158.27,0,0,0-13.74-10.53c-28.4-19.36-62.62-27.78-96.78-25.62a176.17,176.17,0,0,0-33.14,5.28c-3.3.86-6.58,1.81-9.82,2.9-.88.3-3.23,1.68-4.15,1.51-.7-.13-1.91-1.84-2.42-2.34-2.52-2.44-5.11-4.81-7.75-7.12a242.65,242.65,0,0,0-29.32-22c-27-17.17-59.35-29.81-91.78-24.72a91.82,91.82,0,0,0-26.09,8.25c-.66.32-2.53,1.71-3.17,1.62-.46-.06-2.24-2.09-2.77-2.58q-3.38-3.13-6.81-6.2-7.11-6.38-14.46-12.49c-14.67-12.17-30.12-23.57-46.74-32.93-20.75-11.69-45.2-21.44-69.48-18-16.58,2.36-30.92,11.42-41.5,24.22-9.35,11.32-15.82,24.86-20.42,38.73q-2.61,7.88-4.42,16c-.63,2.81-.57,7-1.81,9.57-.71,1.49.37.68-1.05.92-1.65.28-4.5-.91-6.12-1.23q-13-2.53-26.07-4.58a698.41,698.41,0,0,0-86.15-8.71c-29.57-1-60.95-.42-89.2,9.34-21.64,7.48-40.28,22.57-40.68,47.1-.22,13.61,4.32,27,10,39.16,10.24,21.93,24.89,41.75,40.22,60.35C443,316.63,469.13,342.78,496,367.9c9.34,8.73,18.73,16.22,30.71,21,10.4,4.14,21.49,6.24,32.6,7.3,26.55,2.52,53.43,0,80-.87,33.67-1.1,67.38-.16,100.59,6,42.57,7.87,83.13,24,120.33,46q8.21,4.86,16.2,10.08c1.3.85,8.05,4.22,8.08,5.52,0,.25-.56.52-.59.8-.11,1-.91,1.84-.93,3a8.16,8.16,0,0,0,2.5,5.41c6.53,7.3,17.88,11,26.8,14.12a335.87,335.87,0,0,0,47.06,12.31c35.55,7,72.81,11.22,109,8,18.11-1.6,54-6.16,54-31,0-12.48-8.49-24.08-16.11-33.21a223,223,0,0,0-25-24.93q-3.57-3.11-7.22-6.13-2.14-1.77-4.3-3.51c-1.25-1-2.31-.91-.75-1.92.93-.6,4.65.22,5.67.27,11.16.49,22.33.8,33.5.8,15.78,0,31.68-.47,47.32-2.74,8.49-1.23,17.37-2.87,25.12-6.73,5.64-2.81,11.12-7.68,9.59-14.54a17.67,17.67,0,0,0-5.5-8.88S1184.67,374.08,1184.69,374.1Z" transform="translate(1.06 1)"/></g></g><g id="front-cloud"><path d="M252.54,282.54s198.27-54,207.68,22.59C566.89,265,634,398.61,634,398.61s18.82-36.39,150-58.35c134.9-.63,109.8,146.19,109.8,146.19s91,140.55-288.62,111.68c-144.94,59-240.93-18.2-240.93-18.2s-122.35,106-251.6,0c-99.13.63-84.7-152.47-84.7-152.47s0-105.41,158.11-63.37C163.45,303.24,252.54,282.54,252.54,282.54Z" transform="translate(1.06 1)" style="fill:url(#linear-gradient-4)"/><path d="M252.54,282.54s198.27-54,207.68,22.59C566.89,265,634,398.61,634,398.61s18.82-36.39,150-58.35c134.9-.63,109.8,146.19,109.8,146.19s91,140.55-288.62,111.68c-144.94,59-240.93-18.2-240.93-18.2s-122.35,106-251.6,0c-99.13.63-84.7-152.47-84.7-152.47s0-105.41,158.11-63.37C163.45,303.24,252.54,282.54,252.54,282.54Z" transform="translate(1.06 1)" style="opacity:0.51;mix-blend-mode:screen;fill:url(#White_Black)"/><path d="M252.54,282.54s198.27-54,207.68,22.59C566.89,265,634,398.61,634,398.61s18.82-36.39,150-58.35c134.9-.63,109.8,146.19,109.8,146.19s91,140.55-288.62,111.68c-144.94,59-240.93-18.2-240.93-18.2s-122.35,106-251.6,0c-99.13.63-84.7-152.47-84.7-152.47s0-105.41,158.11-63.37C163.45,303.24,252.54,282.54,252.54,282.54Z" transform="translate(1.06 1)" style="opacity:0.7000000000000001;mix-blend-mode:screen;fill:url(#linear-gradient-5)"/><g style="opacity:0.49;mix-blend-mode:screen"><path d="M235.29,608.72c-40-.18-77.91-14.31-110.2-37.62q-2.92-2.11-5.78-4.31c-1.75-1.35-4.34-4.36-6.45-5.12-2.8-1-7.35-.25-10.38-.59A70.89,70.89,0,0,1,77,553.44c-15.74-8.36-26.8-22.87-34.06-38.85-7.13-15.7-11-32.77-13.24-49.81q-.88-6.84-1.38-13.71-.32-4.38-.5-8.76c0-1.14-.08-2.28-.12-3.43-.4-10.81-.41,28.18,0,18,.14-3.8.36-7.59.57-11.39,0-.83.07-1.6.09-2.46.06-2.76,1.48-5.3,0,1.32a18.25,18.25,0,0,0,.12-1.94A88.31,88.31,0,0,1,30,432.66a76.54,76.54,0,0,1,10.49-25,71.24,71.24,0,0,1,24.82-22.88c36.31-20.34,83.12-12.32,121.25-2.2-.46-.12.18-16.56.18-18,0-4.24,0-8.49-.05-12.73,0-1.51.39-3.87-.13-5.27a63.21,63.21,0,0,1-3.14-11.22c-.2-1.14-.28-2.3-.48-3.43l0,13q-.85,20.26.24,11.38a67.61,67.61,0,0,1,1.75-7.13,50.7,50.7,0,0,1,11.48-18.43c8.79-9.28,20.08-16,31.65-21.24,11.34-5.12,23.12-8.46,35.17-11.34,29.17-7,58.92-12.28,88.84-14.66,17.75-1.41,35.76-1.83,53.46.44,12.65,1.63,25.81,4.65,36.65,11.68,8.3,5.39,14.49,13.27,16.82,23,.24,1,.44,4.61,1.08,4.9.91.41,4.54-1.63,5.62-2q4-1.31,8.13-2.33A107.21,107.21,0,0,1,501.63,316c26.64.47,51.76,11.9,72.49,28.11,15.72,12.29,29.27,27.23,41,43.31q6.57,9,12.38,18.51c2,3.23,3.52,7.3,5.86,10.25.61.76.15,1,.87.77.25-.09.81-1.28,1-1.48a46.31,46.31,0,0,1,9-9c9-7.27,19.36-12.81,29.87-17.57,24.68-11.19,51.15-18.41,77.56-24.12q14.69-3.18,29.52-5.69c8-1.38,16.85-.21,24.89.86,15.33,2.05,30.43,6.74,43.51,15.12,27.61,17.68,40.71,49.17,44.47,80.69q.71,5.92,1,11.88c.06,1.26.08,2.52.15,3.79.25,4.79.5-31.69-.07-21.07-.12,2.22-.21,4.44-.38,6.66-.28,3.8-.88,7.55-1.26,11.33-.67,6.75-.21,13.79-.21,20.56,0,4.52-1.17,11.51.35,15.88,1.13,3.24,3.34,6.29,4.6,9.54a72.32,72.32,0,0,1,2.68,8.25c.44,1.7.82,3.42,1.12,5.15.16.91.3,1.82.42,2.73s.21,1.68.27,2.52q1.36,16,.15-27.62a53.54,53.54,0,0,1-7.92,24.75c-8,12.68-20.75,21.63-34,28.17-27.83,13.73-59.71,19-90.3,22.12-38.26,3.92-76.89,3.91-115.28,2.34q-15.38-.63-30.74-1.61-7.25-.46-14.5-1c-1.54-.11-3.49-.61-5-.36-2.4.39-5.11,2-7.39,2.91a300.27,300.27,0,0,1-60.58,16.18c-56.4,8.71-117.72-1-166-32.55-1.53-1-5.53-4.85-7.16-4.61-.91.14-2.6,2.1-3.31,2.64-2.6,2-5.27,3.92-8,5.78a225.78,225.78,0,0,1-68.79,32,187.44,187.44,0,0,1-48.58,6.6c-.26,0-.27,36,0,36,44.88,0,90.71-17.28,126-44.85,2-1.53,2.14-2.46,4.07-1.51,3.9,1.93,7.51,5.18,11.26,7.43a224.57,224.57,0,0,0,56.79,23.79A249.56,249.56,0,0,0,528.88,636a288.74,288.74,0,0,0,52.24-11.54q6.48-2.06,12.88-4.4c3.4-1.24,7.6-3.77,11.15-4.29,3.85-.56,8.83.65,12.71.91q7.16.49,14.33.9c34.52,2,69.18,2.86,103.74,1.31,29.55-1.33,59.34-4.22,88.07-11.51,25.06-6.35,53.16-16.54,68.91-38.32,11.73-16.22,10.26-35.08,10.2-54.17,0-14.35-.58-27.67-6.75-40.86a45.75,45.75,0,0,0-2.94-5.52v36c3.51-20.33,2.26-41.88,1.94-62.34-.29-18.46-2.42-36.91-8.65-54.39-6.49-18.22-17.49-34.72-33.31-46.09-15-10.78-33.06-16.27-51.28-18.21-5.17-.55-10.37-.82-15.57-.88S776,324,770.8,324.94c-10.7,2-21.35,4.21-31.94,6.75a413.53,413.53,0,0,0-48.41,14.48,220,220,0,0,0-29.78,13.43c-7.56,4.2-15,9-21.24,15.08a35.82,35.82,0,0,0-4.1,4.6,21.59,21.59,0,0,1-1.24,2c-.68.06-4-7-4.48-7.84-4.16-7.11-8.69-14-13.51-20.69C602.6,334,586.6,316.64,567.67,303.28c-27.83-19.63-61.23-28.44-94.68-19.83q-3.64.94-7.23,2.1c-.76.25-5.25,2.41-5.83,2.06s-1.23-6.46-1.58-7.57a35.91,35.91,0,0,0-8.49-14.19c-10-10.34-24.88-14.73-38.69-17-39.66-6.66-81.84-.1-120.9,7.55-16.72,3.27-33.85,6.58-50,12.29-13.24,4.69-26.27,11-37.17,20A60.4,60.4,0,0,0,188,306.36c-6.45,12-5.42,25.32-5.42,38.54,0,13-.52,25.39,4.05,37.71v-36c-47.81-12.7-120-22.26-148.84,29.65-6.62,11.93-9.46,25-9.62,38.51l.13-5.27c-.53,5.85-.68,11.73-.78,17.6-.32,18.38-.57,36.91.53,55.27,1.34,22.48,5,45.36,14,66.14,9.09,21,24.57,39.12,47.09,45.88a76.33,76.33,0,0,0,16.46,3c2.15.16,5.13-.38,7.16.22,2.37.7,5.29,4.25,7.27,5.75a222.22,222.22,0,0,0,33.89,21.43,181.22,181.22,0,0,0,81.38,19.94C235.5,644.72,235.62,608.72,235.29,608.72Z" transform="translate(1.06 1)"/></g><path d="M252.54,282.54s198.27-54,207.68,22.59C566.89,265,634,398.61,634,398.61s18.82-36.39,150-58.35c134.9-.63,109.8,146.19,109.8,146.19s91,140.55-288.62,111.68c-144.94,59-240.93-18.2-240.93-18.2s-122.35,106-251.6,0c-99.13.63-84.7-152.47-84.7-152.47s0-105.41,158.11-63.37C163.45,303.24,252.54,282.54,252.54,282.54Z" transform="translate(1.06 1)" style="fill:none;stroke:#717171;stroke-miterlimit:1;stroke-width:0.5878px"/><g style="opacity:0.58"><path d="M252.54,282.6a574.43,574.43,0,0,1,75.34-14.77c20.71-2.73,41.71-4.43,62.61-3.42,17.31.84,36.17,3.24,51.18,12.59a40,40,0,0,1,14.8,15.58,37.48,37.48,0,0,1,3.44,10.49c.33,1.91-.27,1.84,1.56,1.66,1.56-.15,3.42-1.2,4.94-1.69q5.08-1.62,10.3-2.78c24-5.33,48.72-2,70.81,8.68,34.38,16.56,61.3,47.29,80.75,79.53q1.84,3,3.57,6.14c.44.79,1.08,2.82,1.82,3.36,1,.72,0,.63,1.17-.54,5.52-5.71,10.71-10.78,17.49-15.17,16.83-10.91,36-18.21,55-24.22,15.75-5,31.8-8.95,48-12.34,9.5-2,19.67-4.89,29.37-5.38a118,118,0,0,1,20.75,1.26c21.48,2.77,42.34,10.85,58,26.14,12.73,12.41,21.14,28.5,26,45.46,4.81,16.62,6.5,34.11,6.1,51.37-.12,5.13-.42,10.26-1,15.37-.19,1.83-1.1,4.52-.81,6.35a10.9,10.9,0,0,0,1.49,2.87,69.68,69.68,0,0,1,4.53,10.57c4.31,12.78,4.93,26.85,0,39.55-7.49,19.12-25.54,31.52-43.62,39.59-37.66,16.81-81,20.69-121.71,22.42-33.71,1.44-67.49.62-101.16-1.31q-7.15-.41-14.29-.89c-5-.33-10.89-1.71-15.59-.28-9.53,2.9-18.7,7-28.29,9.85a283.46,283.46,0,0,1-53.05,10.44c-47.91,4.64-97.62-4.21-139.87-27.67-4.72-2.62-9.35-5.42-13.79-8.49-.79-.54-3.28-3-4.22-3-.52,0-1.82,1.5-2.22,1.81-1.68,1.34-3.4,2.63-5.14,3.89a215.51,215.51,0,0,1-18.64,12.09c-46.08,26.74-101.22,37.39-153,21.95a196.5,196.5,0,0,1-49.51-23q-6.27-4-12.28-8.42c-3.57-2.61-8.15-7.88-12.41-8.39-5.53-.66-11-.59-16.49-1.77C75.29,574,59.69,561.74,49.33,545.24c-19.39-30.86-23.1-71.05-22-106.68.36-11.63,1.26-23,5.37-34,11.06-29.68,38.69-45.65,69.18-49.27,28.18-3.35,57,1.74,84.16,8.9,0,0,0-.11,0-.12-7.57-21-1.94-40.95,14.43-55.58,11.84-10.59,26.68-17.71,41.63-22.77,3.43-1.16,6.92-2.27,10.45-3.1,0,0,0-.12,0-.12-29.51,6.9-69.56,27.06-70.17,61.79a48.56,48.56,0,0,0,.54,8.05c.46,3.06,1.76,6,2.16,9.06.15,1.13.95,1.2-.07,1.95s-2.88-.3-3.89-.56q-4-1-8-1.91c-16.22-3.69-32.78-6.28-49.42-6.67-21.52-.5-44.16,2.73-62.58,14.6-19,12.27-31.45,33.71-33.09,56.29a297.08,297.08,0,0,0,.57,51.06c3.9,38.6,17.26,86.25,58.33,100a74.82,74.82,0,0,0,16.79,3.48c2.61.24,6.46-.39,8.9.38,2.19.69,5.15,4.13,6.94,5.5q3.79,2.9,7.7,5.65a202.62,202.62,0,0,0,55,27.75,180.23,180.23,0,0,0,96.06,3.1,222.45,222.45,0,0,0,65.86-27.77,196.08,196.08,0,0,0,16.49-11.38c1.45-1.12,2.6-2.77,4.09-2.4,1.07.26,2.56,1.88,3.46,2.5,2.06,1.42,4.16,2.79,6.29,4.11a200.51,200.51,0,0,0,20.78,11.17,237.66,237.66,0,0,0,71.93,20.39c35.31,4.27,71.22.66,105.36-9.12,10.48-3,20.45-7.31,30.8-10.58,4.88-1.54,11.33,0,16.5.34q8,.53,16,1c19.37,1.07,38.76,1.75,58.16,1.86,30.35.17,60.83-.93,90.94-4.95,20.56-2.74,41.16-6.79,60.68-13.94,21.18-7.76,43.82-20.28,53.3-41.94,5.24-12,5.43-25.36,2-37.82a71.31,71.31,0,0,0-5-13.12c-.77-1.54-2-3.22-2.07-4.5-.19-3,.81-6.42,1.06-9.38q.65-7.83.68-15.7a173.07,173.07,0,0,0-5.06-43.65c-4.77-18.58-13.52-36.35-27.44-49.78-17.47-16.87-41.1-24.7-64.94-26.6-3.61-.29-7.24-.44-10.86-.5-5.51-.08-11,1.28-16.38,2.28-10.08,1.87-20.11,3.94-30.09,6.29a427,427,0,0,0-46.56,13.51C677,368.5,659.41,376,644.86,387.43a57,57,0,0,0-8.66,8.11,31.72,31.72,0,0,1-2.18,3c-.73-.05-3.7-6.72-4.09-7.39-3.58-6.13-7.44-12.1-11.53-17.91-26-37-64.08-72.19-111.35-75.46a109.77,109.77,0,0,0-42.49,5.74,20.29,20.29,0,0,1-2.47.86c-1.38.27-1.21,1-2,0-.38-.51-.35-2.12-.49-2.79a37.78,37.78,0,0,0-1.84-6.14,35.71,35.71,0,0,0-5.93-9.88c-11.65-13.79-31.42-18.24-48.52-20.22-41.83-4.84-85.41,2.47-126.26,11.31-8.22,1.78-16.44,3.64-24.55,5.85C252.53,282.48,252.55,282.59,252.54,282.6Z" transform="translate(1.06 1)"/></g></g><path d="M0,949.88s643.12-155.6,1254.87,0Z" transform="translate(1.06 1)" style="fill:#55a586;stroke:#000;stroke-miterlimit:1;stroke-width:9px"/><g id="Group_9" data-name="Group 9"><g style="clip-path:url(#clip-path)"><g id="Group_9-2" data-name="Group 9"><g id="Shape_1" data-name="Shape 1"><path d="M501,732.5c-7.34-1.49-3.45-9.09-3.45-9.09s13.39,1.73,22.38,3c12.14,1.69,13.22-2.1,8.51-5.6s-49.34-35.93-49.34-35.93-44.58,32.38-49.35,35.93-3.63,7.29,8.52,5.6c9-1.25,22.38-3,22.38-3v8.76c0,21.94,46.47,15.84,46.47,25.19,0,11.13-66.11,1.72-66.11,30.34,0,22.14,32.27,18.89,32.27,25.76v10.69h37V813.46c0-20.4-32.27-15.89-32.27-25.76,0-8.43,18.35-3,39.6-8.86,16.41-4.56,29.64-12.4,29.64-21.48C547.25,740.1,521,736.57,501,732.5Z" transform="translate(1.06 1)" style="fill:#d42727;fill-rule:evenodd"/></g><g id="Shape_1-2" data-name="Shape 1"><path d="M657.86,718.06c-7.34-1.49-3.45-9.09-3.45-9.09s13.39,1.73,22.38,3c12.14,1.69,13.22-2.1,8.51-5.6S636,670.43,636,670.43s-44.58,32.38-49.35,35.93-3.63,7.29,8.52,5.6c9-1.25,22.38-3,22.38-3v8.76c0,21.94,46.47,15.84,46.47,25.19,0,11.13-66.11,1.72-66.11,30.34,0,22.14,32.27,18.89,32.27,25.76v10.69h37V799c0-20.4-32.27-15.89-32.27-25.76,0-8.43,18.35-3,39.6-8.86,16.41-4.56,29.64-12.4,29.64-21.48C704.12,725.66,677.92,722.13,657.86,718.06Z" transform="translate(1.06 1)" style="fill:#d42727;fill-rule:evenodd"/></g><g id="Shape_1-3" data-name="Shape 1"><path d="M814.73,732.5c-7.34-1.49-3.45-9.09-3.45-9.09s13.39,1.73,22.38,3c12.14,1.69,13.22-2.1,8.51-5.6s-49.34-35.93-49.34-35.93-44.58,32.38-49.35,35.93-3.63,7.29,8.52,5.6c9-1.25,22.38-3,22.38-3v8.76c0,21.94,46.47,15.84,46.47,25.19,0,11.13-66.11,1.72-66.11,30.34,0,22.14,32.27,18.89,32.27,25.76v10.69h37V813.46c0-20.4-32.27-15.89-32.27-25.76,0-8.43,18.35-3,39.6-8.86,16.41-4.56,29.64-12.4,29.64-21.48C861,740.1,834.79,736.57,814.73,732.5Z" transform="translate(1.06 1)" style="fill:#d42727;fill-rule:evenodd"/></g></g></g></g><g id="Group_10" data-name="Group 10"><g style="clip-path:url(#clip-path-2)"><g id="Group_10-2" data-name="Group 10"><g id="Shape_1-4" data-name="Shape 1"><polygon points="497.09 139.98 496.69 139.06 494.47 138.82 495.63 137.25 495.23 136.33 494.22 136.23 492.45 138.6 489.16 138.25 491.14 135.59 494.08 135.91 494.69 135.1 494.28 134.18 492.35 133.97 493.68 132.17 493.28 131.25 492.27 131.15 490.94 132.94 490.16 131.17 489.16 131.06 488.55 131.87 489.73 134.56 487.75 137.22 486.44 134.21 488.2 131.83 487.8 130.91 486.8 130.81 485.63 132.37 484.75 130.34 483.74 130.23 483.13 131.04 484.02 133.07 482.09 132.87 481.48 133.68 481.88 134.6 484.83 134.91 486.14 137.92 482.85 137.57 481.68 134.88 480.67 134.77 480.07 135.58 480.84 137.35 478.62 137.12 478.01 137.93 478.42 138.85 480.64 139.09 479.48 140.65 479.88 141.57 480.88 141.68 482.65 139.3 485.94 139.66 483.97 142.31 481.02 142 480.42 142.81 480.82 143.73 482.76 143.94 481.43 145.73 481.83 146.65 482.83 146.76 484.17 144.97 484.94 146.74 485.95 146.85 486.55 146.03 485.38 143.34 487.35 140.68 488.67 143.69 486.9 146.07 487.3 146.99 488.31 147.1 489.47 145.53 490.36 147.57 491.37 147.68 491.97 146.86 491.08 144.83 493.02 145.04 493.62 144.23 493.22 143.31 490.28 142.99 488.96 139.98 492.25 140.33 493.43 143.03 494.44 143.13 495.04 142.32 494.26 140.55 496.49 140.79 497.09 139.98" style="fill:#27ced4;fill-rule:evenodd"/></g><g id="Shape_4" data-name="Shape 4"><polygon points="514.12 279.36 513.43 277.8 509.68 277.4 511.64 274.75 510.96 273.19 509.26 273.01 506.28 277.03 500.72 276.42 504.05 271.93 509.03 272.47 510.04 271.1 509.36 269.54 506.09 269.18 508.34 266.15 507.66 264.59 505.96 264.41 503.71 267.44 502.4 264.44 500.7 264.25 499.68 265.63 501.67 270.19 498.34 274.68 496.11 269.58 499.09 265.56 498.41 264.01 496.71 263.82 494.75 266.47 493.24 263.02 491.54 262.84 490.53 264.21 492.03 267.65 488.76 267.3 487.74 268.67 488.42 270.23 493.39 270.77 495.62 275.87 490.06 275.26 488.07 270.7 486.37 270.52 485.35 271.89 486.66 274.89 482.91 274.49 481.89 275.86 482.57 277.42 486.33 277.82 484.36 280.47 485.05 282.03 486.74 282.21 489.72 278.19 495.29 278.8 491.95 283.29 486.98 282.75 485.96 284.12 486.64 285.68 489.92 286.04 487.67 289.07 488.35 290.63 490.05 290.81 492.3 287.78 493.61 290.78 495.31 290.97 496.33 289.59 494.33 285.03 497.67 280.54 499.89 285.64 496.92 289.66 497.6 291.21 499.3 291.4 501.26 288.75 502.76 292.19 504.46 292.38 505.48 291.01 503.97 287.56 507.25 287.92 508.27 286.55 507.59 284.99 502.61 284.45 500.38 279.35 505.94 279.96 507.94 284.51 509.64 284.7 510.66 283.33 509.34 280.32 513.1 280.73 514.12 279.36" style="fill:#27ced4;fill-rule:evenodd"/></g><g id="Shape_5" data-name="Shape 5"><polygon points="584.16 191.64 583.7 191.26 581.21 192.35 581.24 191.83 580.78 191.45 580.29 191.66 580.23 192.78 578.17 193.68 578.24 192.54 577.78 192.16 577.29 192.37 577.19 194.11 576.14 194.57 574.85 193.49 574.91 192.21 576.33 191.58 576.36 190.98 575.9 190.6 574.98 191.02 575.11 188.51 576.01 188.1 576.04 187.51 575.58 187.13 575.17 187.31 575.32 184.28 574.87 183.9 574.38 184.11 574.22 187.15 573.83 186.81 573.34 187.03 573.31 187.62 574.16 188.34 574.03 190.85 573.16 190.12 572.67 190.33 572.64 190.92 573.97 192.05 573.9 193.32 572.52 193.93 571.54 193.11 571.62 191.37 571.16 190.99 570.67 191.21 570.62 192.34 568.69 190.73 568.74 189.62 568.28 189.24 567.79 189.46 567.77 189.97 565.44 188.02 564.95 188.24 564.92 188.83 567.26 190.78 566.83 190.96 566.8 191.55 567.26 191.93 568.18 191.54 570.11 193.15 569.17 193.55 569.13 194.15 569.59 194.53 571.02 193.92 572 194.73 571.92 196.41 570.87 196.87 569.53 195.78 569.04 195.99 569.01 196.58 569.89 197.3 567.83 198.2 566.97 197.5 566.49 197.71 566.45 198.31 566.85 198.63 564.36 199.72 564.33 200.31 564.78 200.69 567.28 199.6 567.25 200.12 567.71 200.5 568.19 200.29 568.26 199.18 570.32 198.27 570.25 199.42 570.71 199.8 571.2 199.58 571.3 197.84 572.34 197.39 573.64 198.47 573.57 199.75 572.16 200.38 572.13 200.97 572.58 201.35 573.51 200.94 573.38 203.45 572.48 203.85 572.45 204.45 572.9 204.83 573.32 204.64 573.16 207.68 573.62 208.06 574.11 207.84 574.26 204.81 574.66 205.14 575.15 204.93 575.18 204.34 574.33 203.61 574.46 201.1 575.33 201.84 575.82 201.63 575.85 201.03 574.52 199.91 574.58 198.63 575.96 198.03 576.95 198.85 576.87 200.58 577.33 200.96 577.81 200.75 577.86 199.61 579.8 201.22 579.75 202.33 580.2 202.71 580.69 202.5 580.71 201.99 583.05 203.93 583.53 203.72 583.57 203.13 581.23 201.18 581.66 201 581.69 200.4 581.23 200.02 580.31 200.41 578.38 198.8 579.32 198.4 579.35 197.81 578.89 197.43 577.46 198.04 576.48 197.22 576.57 195.54 577.62 195.08 578.96 196.18 579.44 195.97 579.47 195.37 578.6 194.65 580.66 193.75 581.51 194.46 582 194.24 582.03 193.65 581.64 193.32 584.13 192.24 584.16 191.64" style="fill:#27ced4;fill-rule:evenodd"/></g><g id="Shape_5-2" data-name="Shape 5"><polygon points="450.48 188.93 449.55 188.16 444.44 190.39 444.5 189.33 443.57 188.56 442.57 188.99 442.43 191.27 438.21 193.12 438.35 190.78 437.42 190.01 436.42 190.45 436.2 193.99 434.06 194.93 431.41 192.73 431.55 190.12 434.45 188.82 434.52 187.61 433.58 186.84 431.68 187.69 431.96 182.56 433.81 181.73 433.88 180.52 432.94 179.74 432.09 180.13 432.42 173.93 431.48 173.16 430.49 173.59 430.15 179.8 429.34 179.11 428.34 179.55 428.28 180.76 430.02 182.23 429.75 187.36 427.96 185.85 426.96 186.29 426.9 187.5 429.62 189.79 429.48 192.39 426.65 193.63 424.64 191.96 424.8 188.42 423.87 187.65 422.87 188.09 422.76 190.4 418.82 187.13 418.92 184.86 417.98 184.09 416.99 184.52 416.94 185.56 412.17 181.6 411.17 182.04 411.1 183.25 415.88 187.22 415 187.59 414.94 188.81 415.87 189.58 417.76 188.78 421.71 192.06 419.78 192.88 419.71 194.09 420.65 194.87 423.59 193.62 425.59 195.28 425.4 198.71 423.26 199.65 420.52 197.42 419.52 197.85 419.46 199.06 421.25 200.53 417.03 202.38 415.27 200.95 414.28 201.38 414.21 202.6 415.02 203.26 409.92 205.49 409.85 206.7 410.79 207.47 415.9 205.24 415.83 206.3 416.77 207.07 417.76 206.64 417.9 204.36 422.13 202.52 421.98 204.85 422.92 205.62 423.92 205.19 424.13 201.64 426.27 200.7 428.92 202.9 428.78 205.51 425.88 206.81 425.82 208.02 426.75 208.79 428.65 207.94 428.38 213.07 426.52 213.9 426.46 215.12 427.39 215.89 428.25 215.51 427.92 221.7 428.85 222.47 429.85 222.04 430.18 215.84 430.99 216.52 431.99 216.09 432.06 214.87 430.31 213.4 430.58 208.27 432.37 209.78 433.37 209.34 433.44 208.13 430.71 205.84 430.85 203.24 433.68 202 435.69 203.67 435.53 207.21 436.46 207.98 437.46 207.55 437.57 205.23 441.52 208.51 441.42 210.77 442.35 211.55 443.35 211.11 443.39 210.07 448.17 214.03 449.17 213.59 449.23 212.38 444.45 208.41 445.33 208.04 445.39 206.83 444.46 206.05 442.57 206.85 438.63 203.57 440.56 202.75 440.62 201.54 439.69 200.76 436.75 202.01 434.75 200.35 434.93 196.92 437.08 195.98 439.81 198.22 440.81 197.78 440.88 196.57 439.08 195.1 443.31 193.25 445.06 194.68 446.06 194.25 446.12 193.03 445.31 192.38 450.42 190.14 450.48 188.93" style="fill:#27ced4;fill-rule:evenodd"/></g><g id="Shape_6" data-name="Shape 6"><polygon points="523.67 224 523.35 223.24 521.24 223.13 522.2 221.96 521.88 221.23 520.99 221.19 519.47 223.04 518.65 223 519.46 222.01 519.14 221.28 518.25 221.23 517.56 222.08 516.6 219.87 517.69 219.94 518.26 219.25 517.94 218.53 516.66 218.45 517.18 217.82 519.58 217.96 520.15 217.28 519.83 216.54 518.32 216.46 519.67 214.83 519.34 214.08 518.42 214.03 517.07 215.66 516.52 214.42 515.63 214.37 515.06 215.06 515.94 217.02 515.41 217.65 514.94 216.6 514.05 216.56 513.48 217.24 513.88 218.13 511.2 217.99 511.9 217.16 511.59 216.43 510.7 216.38 509.87 217.36 509.57 216.69 511.13 214.85 510.81 214.13 509.92 214.08 508.94 215.24 508.18 213.51 507.26 213.46 506.68 214.16 507.43 215.89 505.92 215.83 505.35 216.51 505.67 217.24 508.07 217.35 508.36 218.02 507.08 217.97 506.51 218.65 506.83 219.38 507.92 219.43 506.2 221.49 505.82 220.59 504.93 220.54 504.36 221.23 504.81 222.28 503.99 222.24 503.14 220.27 502.25 220.22 501.69 220.91 502.21 222.15 500.11 222.04 499.52 222.75 499.85 223.5 501.96 223.61 501 224.78 501.32 225.51 502.21 225.56 503.73 223.7 504.55 223.74 503.74 224.74 504.06 225.47 504.94 225.51 505.64 224.67 506.6 226.87 505.51 226.8 504.94 227.49 505.26 228.22 506.54 228.29 506.01 228.93 503.62 228.78 503.05 229.47 503.37 230.2 504.88 230.29 503.53 231.91 503.86 232.66 504.77 232.71 506.12 231.09 506.68 232.32 507.57 232.37 508.14 231.69 507.26 229.73 507.79 229.09 508.25 230.14 509.14 230.19 509.71 229.5 509.31 228.61 512 228.75 511.29 229.59 511.61 230.31 512.5 230.36 513.33 229.38 513.62 230.06 512.07 231.89 512.39 232.62 513.28 232.66 514.26 231.51 515.02 233.24 515.93 233.28 516.52 232.58 515.76 230.85 517.28 230.92 517.85 230.23 517.53 229.5 515.13 229.4 514.83 228.72 516.12 228.78 516.69 228.09 516.37 227.36 515.27 227.32 517 225.25 517.38 226.15 518.27 226.2 518.84 225.51 518.39 224.46 519.21 224.5 520.05 226.48 520.94 226.52 521.51 225.84 520.98 224.59 523.09 224.7 523.67 224" style="fill:#27ced4;fill-rule:evenodd"/></g></g></g></g><g id="Group_10-3" data-name="Group 10"><g style="clip-path:url(#clip-path-3)"><g id="Group_10-4" data-name="Group 10"><g id="Shape_1-5" data-name="Shape 1"><polygon points="712.08 78.88 711.68 77.96 709.46 77.72 710.62 76.15 710.22 75.23 709.21 75.13 707.45 77.5 704.15 77.15 706.13 74.49 709.07 74.81 709.68 74 709.27 73.08 707.34 72.87 708.67 71.07 708.27 70.15 707.26 70.05 705.93 71.84 705.15 70.07 704.15 69.96 703.54 70.77 704.72 73.46 702.75 76.12 701.43 73.11 703.2 70.73 702.79 69.81 701.79 69.71 700.63 71.27 699.74 69.24 698.73 69.13 698.13 69.94 699.02 71.97 697.08 71.77 696.47 72.58 696.88 73.5 699.82 73.81 701.14 76.83 697.84 76.47 696.67 73.78 695.66 73.67 695.06 74.48 695.83 76.25 693.61 76.02 693.01 76.83 693.41 77.75 695.63 77.99 694.47 79.55 694.87 80.47 695.88 80.58 697.64 78.2 700.93 78.56 698.96 81.21 696.02 80.9 695.41 81.71 695.81 82.63 697.75 82.84 696.42 84.63 696.82 85.55 697.83 85.66 699.16 83.86 699.94 85.64 700.94 85.75 701.54 84.93 700.37 82.24 702.34 79.58 703.66 82.59 701.89 84.97 702.29 85.89 703.3 86 704.46 84.44 705.35 86.47 706.36 86.58 706.96 85.76 706.07 83.73 708.01 83.94 708.62 83.13 708.21 82.21 705.27 81.89 703.95 78.88 707.25 79.23 708.42 81.93 709.43 82.03 710.03 81.22 709.26 79.45 711.48 79.69 712.08 78.88" style="fill:#27ced4;fill-rule:evenodd"/></g><g id="Shape_4-2" data-name="Shape 4"><polygon points="729.11 218.26 728.43 216.7 724.67 216.3 726.63 213.65 725.95 212.09 724.25 211.91 721.27 215.93 715.71 215.32 719.04 210.83 724.02 211.37 725.04 210 724.36 208.44 721.08 208.08 723.33 205.05 722.65 203.49 720.95 203.31 718.7 206.34 717.39 203.34 715.69 203.16 714.67 204.53 716.66 209.09 713.33 213.58 711.1 208.48 714.08 204.46 713.4 202.91 711.7 202.72 709.74 205.37 708.24 201.93 706.54 201.74 705.52 203.11 707.02 206.56 703.75 206.2 702.73 207.57 703.41 209.13 708.38 209.67 710.61 214.77 705.05 214.16 703.06 209.6 701.36 209.42 700.34 210.79 701.65 213.79 697.9 213.39 696.88 214.76 697.56 216.32 701.32 216.72 699.36 219.37 700.04 220.93 701.74 221.11 704.72 217.09 710.28 217.7 706.95 222.19 701.97 221.65 700.95 223.03 701.63 224.58 704.91 224.94 702.66 227.97 703.34 229.53 705.04 229.71 707.29 226.68 708.6 229.68 710.3 229.87 711.32 228.49 709.33 223.93 712.66 219.44 714.89 224.54 711.91 228.56 712.59 230.11 714.29 230.3 716.25 227.65 717.75 231.1 719.45 231.28 720.47 229.91 718.97 226.47 722.24 226.82 723.26 225.45 722.58 223.89 717.6 223.35 715.38 218.25 720.94 218.86 722.93 223.42 724.63 223.6 725.65 222.23 724.33 219.23 728.09 219.63 729.11 218.26" style="fill:#27ced4;fill-rule:evenodd"/></g><g id="Shape_5-3" data-name="Shape 5"><polygon points="799.15 130.54 798.69 130.16 796.2 131.25 796.23 130.73 795.77 130.35 795.29 130.57 795.22 131.68 793.16 132.58 793.23 131.44 792.77 131.06 792.28 131.27 792.18 133.01 791.13 133.47 789.84 132.39 789.91 131.11 791.32 130.48 791.35 129.88 790.89 129.5 789.97 129.92 790.1 127.41 791 127 791.03 126.41 790.58 126.03 790.16 126.21 790.32 123.18 789.86 122.8 789.37 123.01 789.21 126.05 788.82 125.71 788.33 125.93 788.3 126.52 789.15 127.25 789.02 129.75 788.15 129.01 787.66 129.23 787.63 129.82 788.96 130.95 788.9 132.22 787.51 132.82 786.53 132.01 786.61 130.27 786.15 129.89 785.66 130.11 785.61 131.24 783.68 129.63 783.73 128.52 783.27 128.14 782.79 128.36 782.76 128.87 780.43 126.92 779.94 127.14 779.91 127.73 782.25 129.68 781.82 129.86 781.79 130.45 782.25 130.83 783.17 130.44 785.1 132.05 784.16 132.45 784.13 133.05 784.58 133.43 786.02 132.82 787 133.63 786.91 135.31 785.86 135.77 784.52 134.68 784.03 134.89 784 135.48 784.88 136.2 782.82 137.1 781.96 136.4 781.48 136.61 781.45 137.21 781.84 137.53 779.35 138.62 779.32 139.21 779.78 139.59 782.27 138.5 782.24 139.02 782.7 139.4 783.18 139.19 783.25 138.07 785.31 137.17 785.24 138.32 785.7 138.7 786.19 138.48 786.29 136.75 787.34 136.29 788.63 137.37 788.56 138.65 787.15 139.28 787.12 139.87 787.58 140.25 788.5 139.84 788.37 142.35 787.47 142.76 787.44 143.35 787.89 143.73 788.31 143.54 788.15 146.58 788.61 146.96 789.1 146.74 789.25 143.71 789.65 144.04 790.14 143.83 790.17 143.24 789.32 142.51 789.45 140 790.32 140.74 790.81 140.53 790.84 139.93 789.51 138.81 789.57 137.53 790.96 136.93 791.94 137.75 791.86 139.48 792.32 139.86 792.81 139.65 792.86 138.51 794.79 140.12 794.74 141.23 795.2 141.61 795.68 141.4 795.71 140.89 798.04 142.83 798.53 142.62 798.56 142.03 796.22 140.08 796.65 139.9 796.68 139.3 796.22 138.92 795.3 139.31 793.37 137.71 794.31 137.3 794.34 136.71 793.89 136.33 792.45 136.94 791.47 136.12 791.56 134.44 792.61 133.98 793.95 135.08 794.43 134.87 794.47 134.27 793.59 133.56 795.65 132.65 796.51 133.35 796.99 133.14 797.02 132.55 796.63 132.22 799.12 131.14 799.15 130.54" style="fill:#27ced4;fill-rule:evenodd"/></g><g id="Shape_5-4" data-name="Shape 5"><polygon points="665.47 127.83 664.54 127.06 659.43 129.29 659.5 128.23 658.56 127.46 657.56 127.89 657.42 130.17 653.2 132.02 653.34 129.69 652.41 128.91 651.41 129.35 651.19 132.89 649.05 133.83 646.4 131.63 646.54 129.02 649.44 127.72 649.51 126.51 648.57 125.74 646.67 126.59 646.95 121.46 648.8 120.63 648.87 119.42 647.93 118.64 647.08 119.03 647.41 112.83 646.48 112.06 645.48 112.49 645.14 118.7 644.33 118.01 643.33 118.45 643.27 119.66 645.01 121.13 644.74 126.26 642.95 124.75 641.95 125.19 641.89 126.4 644.61 128.69 644.47 131.29 641.64 132.53 639.63 130.86 639.79 127.33 638.86 126.55 637.86 126.99 637.76 129.3 633.81 126.03 633.91 123.76 632.98 122.99 631.98 123.42 631.93 124.47 627.16 120.5 626.16 120.94 626.1 122.15 630.88 126.12 630 126.49 629.93 127.71 630.87 128.48 632.75 127.68 636.7 130.96 634.77 131.78 634.71 132.99 635.64 133.77 638.58 132.52 640.58 134.18 640.4 137.62 638.25 138.56 635.51 136.32 634.51 136.75 634.45 137.97 636.24 139.43 632.02 141.28 630.27 139.85 629.27 140.28 629.2 141.5 630.01 142.16 624.91 144.39 624.84 145.6 625.78 146.38 630.89 144.14 630.82 145.2 631.76 145.98 632.75 145.54 632.89 143.26 637.12 141.42 636.98 143.75 637.91 144.52 638.91 144.09 639.13 140.54 641.26 139.6 643.91 141.8 643.77 144.41 640.87 145.71 640.81 146.92 641.74 147.7 643.64 146.84 643.37 151.97 641.51 152.8 641.45 154.02 642.38 154.79 643.24 154.41 642.91 160.6 643.84 161.38 644.84 160.94 645.17 154.74 645.99 155.42 646.98 154.99 647.05 153.77 645.3 152.3 645.58 147.17 647.37 148.68 648.36 148.25 648.43 147.03 645.71 144.74 645.84 142.14 648.67 140.9 650.68 142.57 650.52 146.11 651.46 146.88 652.45 146.45 652.56 144.13 656.51 147.41 656.41 149.67 657.34 150.45 658.34 150.01 658.39 148.97 663.16 152.93 664.16 152.49 664.22 151.28 659.44 147.31 660.32 146.94 660.38 145.73 659.45 144.95 657.57 145.75 653.62 142.47 655.55 141.65 655.61 140.44 654.68 139.66 651.74 140.91 649.74 139.25 649.92 135.82 652.07 134.88 654.8 137.12 655.8 136.68 655.87 135.47 654.08 134 658.3 132.15 660.05 133.59 661.05 133.15 661.11 131.94 660.31 131.28 665.41 129.04 665.47 127.83" style="fill:#27ced4;fill-rule:evenodd"/></g><g id="Shape_6-2" data-name="Shape 6"><polygon points="738.67 162.9 738.34 162.14 736.23 162.03 737.19 160.86 736.87 160.13 735.98 160.09 734.46 161.94 733.64 161.9 734.45 160.91 734.13 160.18 733.24 160.13 732.55 160.98 731.59 158.77 732.68 158.84 733.25 158.16 732.93 157.43 731.65 157.35 732.18 156.72 734.57 156.86 735.14 156.18 734.82 155.44 733.31 155.35 734.66 153.73 734.33 152.98 733.41 152.93 732.06 154.56 731.51 153.32 730.62 153.27 730.05 153.96 730.93 155.92 730.4 156.55 729.93 155.5 729.04 155.46 728.47 156.14 728.87 157.03 726.19 156.89 726.9 156.06 726.58 155.33 725.69 155.28 724.86 156.26 724.56 155.59 726.12 153.75 725.8 153.03 724.91 152.98 723.93 154.13 723.17 152.41 722.25 152.36 721.67 153.06 722.42 154.79 720.91 154.73 720.34 155.41 720.66 156.14 723.06 156.25 723.35 156.92 722.07 156.87 721.5 157.55 721.82 158.28 722.91 158.33 721.19 160.39 720.81 159.49 719.92 159.44 719.35 160.13 719.8 161.19 718.98 161.14 718.14 159.17 717.25 159.12 716.68 159.81 717.21 161.05 715.1 160.94 714.51 161.65 714.84 162.4 716.95 162.51 715.99 163.68 716.31 164.41 717.2 164.46 718.72 162.6 719.54 162.64 718.73 163.64 719.05 164.37 719.93 164.41 720.63 163.57 721.59 165.77 720.5 165.71 719.93 166.39 720.25 167.12 721.53 167.19 721 167.83 718.61 167.68 718.04 168.37 718.36 169.1 719.87 169.19 718.52 170.81 718.85 171.56 719.76 171.61 721.12 169.99 721.67 171.22 722.56 171.27 723.13 170.59 722.25 168.63 722.78 168 723.25 169.04 724.14 169.09 724.71 168.4 724.3 167.51 726.99 167.65 726.28 168.49 726.6 169.22 727.49 169.26 728.32 168.28 728.62 168.96 727.06 170.79 727.38 171.52 728.27 171.56 729.25 170.41 730.01 172.14 730.92 172.19 731.51 171.48 730.76 169.75 732.27 169.82 732.84 169.13 732.52 168.4 730.12 168.3 729.83 167.62 731.11 167.68 731.68 167 731.36 166.26 730.27 166.22 731.99 164.15 732.37 165.05 733.26 165.1 733.83 164.41 733.38 163.36 734.2 163.4 735.04 165.38 735.93 165.42 736.5 164.74 735.97 163.49 738.08 163.6 738.67 162.9" style="fill:#27ced4;fill-rule:evenodd"/></g></g></g></g><g id="Group_10-5" data-name="Group 10"><g style="clip-path:url(#clip-path-4)"><g id="Group_10-6" data-name="Group 10"><g id="Shape_1-6" data-name="Shape 1"><polygon points="886.63 147.69 886.23 146.77 884.01 146.53 885.17 144.97 884.77 144.05 883.76 143.94 882 146.32 878.7 145.96 880.68 143.31 883.62 143.62 884.23 142.81 883.83 141.89 881.89 141.68 883.22 139.89 882.82 138.97 881.81 138.86 880.48 140.65 879.7 138.88 878.7 138.77 878.09 139.58 879.27 142.28 877.3 144.93 875.98 141.92 877.75 139.55 877.34 138.63 876.34 138.52 875.17 140.08 874.29 138.05 873.28 137.94 872.68 138.75 873.57 140.79 871.63 140.58 871.02 141.39 871.43 142.31 874.37 142.63 875.69 145.64 872.39 145.28 871.22 142.59 870.21 142.48 869.61 143.29 870.38 145.07 868.16 144.83 867.56 145.64 867.96 146.56 870.18 146.8 869.02 148.36 869.42 149.28 870.43 149.39 872.19 147.02 875.49 147.37 873.51 150.03 870.57 149.71 869.96 150.52 870.36 151.44 872.3 151.65 870.97 153.44 871.37 154.37 872.38 154.47 873.71 152.68 874.49 154.45 875.49 154.56 876.1 153.75 874.92 151.06 876.89 148.4 878.21 151.41 876.44 153.78 876.85 154.7 877.85 154.81 879.01 153.25 879.9 155.28 880.91 155.39 881.51 154.58 880.62 152.54 882.56 152.75 883.17 151.94 882.76 151.02 879.82 150.71 878.5 147.69 881.79 148.05 882.97 150.74 883.98 150.85 884.58 150.04 883.81 148.26 886.03 148.5 886.63 147.69" style="fill:#27ced4;fill-rule:evenodd"/></g><g id="Shape_4-3" data-name="Shape 4"><polygon points="903.66 287.07 902.98 285.52 899.22 285.11 901.18 282.46 900.5 280.91 898.8 280.72 895.82 284.74 890.26 284.13 893.6 279.64 898.57 280.18 899.59 278.81 898.9 277.25 895.63 276.9 897.88 273.86 897.2 272.31 895.5 272.12 893.25 275.15 891.94 272.15 890.24 271.97 889.22 273.34 891.21 277.9 887.88 282.39 885.65 277.3 888.63 273.28 887.95 271.72 886.25 271.53 884.29 274.18 882.78 270.74 881.09 270.55 880.07 271.93 881.57 275.37 878.3 275.01 877.28 276.39 877.96 277.94 882.94 278.48 885.16 283.58 879.6 282.98 877.61 278.42 875.91 278.23 874.89 279.61 876.21 282.61 872.45 282.2 871.43 283.57 872.11 285.13 875.87 285.54 873.91 288.18 874.59 289.74 876.29 289.93 879.27 285.91 884.83 286.51 881.5 291 876.52 290.46 875.5 291.84 876.18 293.39 879.46 293.75 877.21 296.79 877.89 298.34 879.59 298.53 881.84 295.49 883.15 298.49 884.85 298.68 885.87 297.31 883.88 292.75 887.21 288.25 889.44 293.35 886.46 297.37 887.14 298.93 888.84 299.11 890.8 296.47 892.3 299.91 894 300.09 895.02 298.72 893.52 295.28 896.79 295.63 897.81 294.26 897.13 292.7 892.15 292.16 889.92 287.07 895.49 287.67 897.48 292.23 899.18 292.41 900.2 291.04 898.88 288.04 902.64 288.45 903.66 287.07" style="fill:#27ced4;fill-rule:evenodd"/></g><g id="Shape_5-5" data-name="Shape 5"><polygon points="973.7 199.35 973.24 198.97 970.75 200.06 970.78 199.55 970.32 199.17 969.84 199.38 969.77 200.49 967.71 201.4 967.78 200.25 967.32 199.87 966.83 200.09 966.73 201.82 965.68 202.28 964.39 201.2 964.46 199.92 965.87 199.29 965.9 198.7 965.45 198.31 964.52 198.73 964.65 196.22 965.55 195.81 965.58 195.22 965.13 194.84 964.71 195.03 964.87 191.99 964.41 191.61 963.92 191.83 963.76 194.86 963.37 194.53 962.88 194.74 962.85 195.33 963.7 196.06 963.57 198.57 962.7 197.83 962.21 198.04 962.18 198.63 963.51 199.76 963.45 201.03 962.06 201.64 961.08 200.82 961.16 199.09 960.7 198.71 960.21 198.92 960.16 200.06 958.23 198.44 958.28 197.34 957.82 196.96 957.34 197.17 957.32 197.68 954.98 195.74 954.49 195.95 954.46 196.54 956.8 198.49 956.37 198.67 956.34 199.27 956.8 199.65 957.72 199.25 959.65 200.86 958.71 201.27 958.68 201.86 959.13 202.24 960.57 201.63 961.55 202.44 961.46 204.13 960.41 204.59 959.07 203.49 958.59 203.7 958.55 204.29 959.43 205.01 957.37 205.92 956.51 205.21 956.03 205.43 956 206.02 956.39 206.34 953.9 207.43 953.87 208.03 954.33 208.41 956.82 207.32 956.79 207.84 957.25 208.22 957.73 208 957.8 206.89 959.86 205.99 959.79 207.13 960.25 207.51 960.74 207.3 960.84 205.56 961.89 205.1 963.18 206.18 963.11 207.46 961.7 208.09 961.67 208.69 962.13 209.07 963.05 208.65 962.92 211.16 962.02 211.57 961.99 212.16 962.44 212.54 962.86 212.35 962.7 215.39 963.16 215.77 963.65 215.56 963.8 212.52 964.2 212.85 964.69 212.64 964.72 212.05 963.87 211.32 964 208.81 964.87 209.55 965.36 209.34 965.39 208.75 964.06 207.62 964.12 206.35 965.51 205.74 966.49 206.56 966.41 208.29 966.87 208.68 967.36 208.46 967.41 207.33 969.34 208.94 969.29 210.05 969.75 210.43 970.23 210.21 970.25 209.7 972.59 211.65 973.08 211.43 973.11 210.84 970.77 208.89 971.2 208.71 971.23 208.12 970.77 207.74 969.85 208.13 967.92 206.52 968.86 206.12 968.89 205.52 968.44 205.14 967 205.75 966.02 204.94 966.11 203.25 967.16 202.8 968.5 203.89 968.99 203.68 969.02 203.09 968.14 202.37 970.2 201.47 971.06 202.17 971.54 201.96 971.58 201.36 971.18 201.04 973.67 199.95 973.7 199.35" style="fill:#27ced4;fill-rule:evenodd"/></g><g id="Shape_5-6" data-name="Shape 5"><polygon points="840.02 196.65 839.09 195.87 833.98 198.1 834.04 197.04 833.11 196.27 832.11 196.71 831.97 198.98 827.75 200.83 827.89 198.5 826.96 197.72 825.96 198.16 825.74 201.71 823.6 202.64 820.96 200.44 821.09 197.84 823.99 196.54 824.06 195.32 823.12 194.55 821.22 195.4 821.5 190.28 823.35 189.44 823.42 188.23 822.48 187.46 821.63 187.84 821.96 181.65 821.02 180.87 820.03 181.31 819.7 187.51 818.88 186.82 817.88 187.26 817.82 188.47 819.57 189.95 819.29 195.07 817.5 193.56 816.5 194 816.44 195.21 819.16 197.51 819.02 200.11 816.19 201.34 814.18 199.68 814.35 196.14 813.41 195.36 812.41 195.8 812.31 198.12 808.36 194.84 808.46 192.57 807.53 191.8 806.53 192.24 806.48 193.28 801.71 189.32 800.71 189.75 800.65 190.97 805.42 194.93 804.55 195.31 804.48 196.52 805.42 197.29 807.3 196.49 811.25 199.77 809.32 200.59 809.26 201.81 810.19 202.58 813.13 201.33 815.13 202.99 814.95 206.43 812.8 207.37 810.06 205.13 809.06 205.57 809 206.78 810.79 208.25 806.57 210.09 804.82 208.66 803.82 209.1 803.75 210.31 804.56 210.97 799.46 213.2 799.39 214.41 800.33 215.19 805.44 212.95 805.37 214.01 806.31 214.79 807.3 214.35 807.45 212.07 811.67 210.23 811.53 212.56 812.46 213.34 813.46 212.9 813.67 209.35 815.82 208.41 818.46 210.61 818.32 213.22 815.42 214.52 815.36 215.73 816.29 216.51 818.19 215.66 817.92 220.78 816.07 221.62 816 222.83 816.93 223.6 817.79 223.22 817.46 229.41 818.39 230.19 819.39 229.75 819.72 223.55 820.53 224.24 821.53 223.8 821.6 222.59 819.85 221.11 820.13 215.99 821.91 217.5 822.91 217.06 822.98 215.85 820.26 213.55 820.39 210.95 823.23 209.72 825.23 211.38 825.07 214.92 826.01 215.7 827 215.26 827.11 212.94 831.06 216.22 830.96 218.49 831.89 219.26 832.89 218.82 832.94 217.78 837.71 221.74 838.71 221.31 838.77 220.09 833.99 216.13 834.87 215.75 834.93 214.54 834 213.76 832.12 214.56 828.17 211.29 830.1 210.46 830.16 209.25 829.23 208.48 826.29 209.73 824.29 208.07 824.47 204.63 826.62 203.69 829.36 205.93 830.36 205.49 830.42 204.28 828.63 202.81 832.85 200.97 834.6 202.4 835.6 201.96 835.66 200.75 834.86 200.09 839.96 197.86 840.02 196.65" style="fill:#27ced4;fill-rule:evenodd"/></g><g id="Shape_6-3" data-name="Shape 6"><polygon points="913.22 231.71 912.89 230.96 910.78 230.85 911.74 229.68 911.42 228.95 910.53 228.9 909.01 230.75 908.19 230.71 909 229.72 908.68 228.99 907.79 228.94 907.1 229.79 906.14 227.59 907.23 227.65 907.8 226.97 907.48 226.24 906.2 226.16 906.73 225.53 909.12 225.67 909.69 224.99 909.37 224.26 907.86 224.17 909.21 222.55 908.88 221.79 907.97 221.75 906.61 223.37 906.06 222.13 905.17 222.09 904.6 222.77 905.48 224.73 904.95 225.36 904.48 224.31 903.59 224.27 903.02 224.95 903.42 225.85 900.74 225.71 901.45 224.87 901.13 224.14 900.24 224.1 899.41 225.08 899.11 224.4 900.67 222.57 900.35 221.84 899.46 221.79 898.48 222.95 897.72 221.22 896.8 221.17 896.22 221.88 896.97 223.61 895.46 223.54 894.89 224.22 895.21 224.96 897.61 225.06 897.9 225.73 896.62 225.68 896.05 226.36 896.37 227.09 897.46 227.14 895.74 229.21 895.36 228.3 894.47 228.26 893.9 228.94 894.35 230 893.53 229.96 892.69 227.98 891.8 227.94 891.23 228.62 891.76 229.87 889.65 229.76 889.06 230.46 889.39 231.22 891.5 231.32 890.54 232.49 890.86 233.22 891.75 233.27 893.27 231.41 894.09 231.46 893.28 232.45 893.6 233.18 894.49 233.22 895.18 232.38 896.14 234.58 895.05 234.52 894.48 235.2 894.8 235.93 896.08 236.01 895.55 236.64 893.16 236.5 892.59 237.18 892.91 237.91 894.42 238 893.07 239.62 893.4 240.38 894.31 240.42 895.66 238.8 896.22 240.04 897.11 240.08 897.68 239.4 896.8 237.44 897.33 236.81 897.8 237.85 898.69 237.9 899.26 237.22 898.86 236.32 901.54 236.46 900.83 237.3 901.15 238.03 902.04 238.07 902.87 237.09 903.17 237.77 901.61 239.6 901.93 240.33 902.82 240.38 903.8 239.22 904.56 240.95 905.48 241 906.06 240.29 905.31 238.56 906.82 238.63 907.39 237.94 907.07 237.22 904.67 237.11 904.38 236.44 905.66 236.49 906.23 235.81 905.91 235.08 904.82 235.03 906.54 232.97 906.92 233.87 907.81 233.91 908.38 233.23 907.93 232.17 908.75 232.21 909.59 234.19 910.48 234.24 911.05 233.55 910.52 232.31 912.63 232.41 913.22 231.71" style="fill:#27ced4;fill-rule:evenodd"/></g></g></g></g><g id="Group_10-7" data-name="Group 10"><g style="clip-path:url(#clip-path-5)"><g id="Group_10-8" data-name="Group 10"><g id="Shape_1-7" data-name="Shape 1"><polygon points="1050.27 183.78 1049.87 182.85 1047.65 182.62 1048.81 181.05 1048.41 180.13 1047.4 180.02 1045.64 182.4 1042.35 182.05 1044.32 179.39 1047.27 179.71 1047.87 178.89 1047.47 177.97 1045.53 177.77 1046.86 175.97 1046.46 175.05 1045.45 174.94 1044.12 176.74 1043.35 174.97 1042.34 174.86 1041.73 175.67 1042.91 178.36 1040.94 181.02 1039.62 178.01 1041.39 175.63 1040.98 174.71 1039.98 174.6 1038.82 176.17 1037.93 174.13 1036.92 174.03 1036.32 174.84 1037.21 176.87 1035.27 176.66 1034.66 177.48 1035.07 178.4 1038.01 178.71 1039.33 181.72 1036.04 181.37 1034.86 178.68 1033.85 178.57 1033.25 179.38 1034.02 181.15 1031.8 180.91 1031.2 181.73 1031.6 182.65 1033.82 182.88 1032.66 184.45 1033.06 185.37 1034.07 185.48 1035.83 183.1 1039.13 183.45 1037.15 186.11 1034.21 185.8 1033.6 186.61 1034.01 187.53 1035.94 187.74 1034.61 189.53 1035.01 190.45 1036.02 190.56 1037.35 188.76 1038.13 190.54 1039.13 190.64 1039.74 189.83 1038.56 187.14 1040.54 184.48 1041.85 187.49 1040.08 189.87 1040.49 190.79 1041.49 190.9 1042.66 189.33 1043.55 191.37 1044.55 191.47 1045.15 190.66 1044.27 188.63 1046.2 188.84 1046.81 188.03 1046.4 187.11 1043.46 186.79 1042.14 183.78 1045.44 184.13 1046.61 186.82 1047.62 186.93 1048.22 186.12 1047.45 184.35 1049.67 184.59 1050.27 183.78" style="fill:#27ced4;fill-rule:evenodd"/></g><g id="Shape_4-4" data-name="Shape 4"><polygon points="1067.3 323.16 1066.62 321.6 1062.86 321.19 1064.83 318.55 1064.14 316.99 1062.44 316.81 1059.46 320.82 1053.9 320.22 1057.23 315.73 1062.21 316.27 1063.23 314.89 1062.55 313.34 1059.27 312.98 1061.52 309.95 1060.84 308.39 1059.14 308.2 1056.89 311.24 1055.58 308.24 1053.88 308.05 1052.86 309.43 1054.86 313.99 1051.52 318.48 1049.29 313.38 1052.27 309.36 1051.59 307.8 1049.89 307.62 1047.93 310.26 1046.43 306.82 1044.73 306.64 1043.71 308.01 1045.21 311.45 1041.94 311.1 1040.92 312.47 1041.6 314.03 1046.58 314.57 1048.81 319.67 1043.24 319.06 1041.25 314.5 1039.55 314.32 1038.53 315.69 1039.85 318.69 1036.09 318.28 1035.07 319.66 1035.75 321.21 1039.51 321.62 1037.55 324.27 1038.23 325.83 1039.93 326.01 1042.91 321.99 1048.47 322.6 1045.14 327.09 1040.16 326.55 1039.14 327.92 1039.83 329.48 1043.1 329.84 1040.85 332.87 1041.53 334.43 1043.23 334.61 1045.48 331.58 1046.79 334.58 1048.49 334.76 1049.51 333.39 1047.52 328.83 1050.85 324.34 1053.08 329.44 1050.1 333.45 1050.78 335.01 1052.48 335.2 1054.44 332.55 1055.94 335.99 1057.64 336.18 1058.66 334.81 1057.16 331.36 1060.43 331.72 1061.45 330.35 1060.77 328.79 1055.8 328.25 1053.57 323.15 1059.13 323.75 1061.12 328.31 1062.82 328.5 1063.84 327.13 1062.53 324.12 1066.28 324.53 1067.3 323.16" style="fill:#27ced4;fill-rule:evenodd"/></g><g id="Shape_5-7" data-name="Shape 5"><polygon points="1137.34 235.44 1136.88 235.06 1134.39 236.15 1134.42 235.63 1133.96 235.25 1133.48 235.46 1133.41 236.58 1131.35 237.48 1131.42 236.34 1130.96 235.96 1130.47 236.17 1130.37 237.91 1129.33 238.37 1128.03 237.29 1128.1 236.01 1129.51 235.37 1129.54 234.78 1129.09 234.4 1128.16 234.82 1128.29 232.31 1129.19 231.9 1129.22 231.31 1128.77 230.92 1128.35 231.11 1128.51 228.08 1128.05 227.7 1127.56 227.91 1127.41 230.95 1127.01 230.61 1126.52 230.82 1126.49 231.42 1127.34 232.14 1127.21 234.65 1126.34 233.91 1125.85 234.13 1125.82 234.72 1127.15 235.85 1127.09 237.12 1125.7 237.72 1124.72 236.9 1124.8 235.17 1124.34 234.79 1123.86 235 1123.81 236.14 1121.87 234.53 1121.92 233.42 1121.46 233.04 1120.98 233.25 1120.95 233.76 1118.62 231.82 1118.13 232.03 1118.1 232.63 1120.44 234.57 1120.01 234.76 1119.98 235.35 1120.44 235.73 1121.36 235.34 1123.29 236.95 1122.35 237.35 1122.32 237.94 1122.77 238.32 1124.21 237.71 1125.19 238.53 1125.1 240.21 1124.05 240.67 1122.71 239.57 1122.23 239.79 1122.19 240.38 1123.07 241.1 1121.01 242 1120.15 241.3 1119.67 241.51 1119.64 242.11 1120.03 242.43 1117.54 243.52 1117.51 244.11 1117.97 244.49 1120.46 243.4 1120.43 243.92 1120.89 244.3 1121.37 244.09 1121.44 242.97 1123.5 242.07 1123.43 243.21 1123.89 243.59 1124.38 243.38 1124.48 241.64 1125.53 241.19 1126.82 242.27 1126.76 243.54 1125.34 244.18 1125.31 244.77 1125.77 245.15 1126.69 244.74 1126.56 247.25 1125.66 247.65 1125.63 248.25 1126.09 248.63 1126.5 248.44 1126.35 251.47 1126.8 251.85 1127.29 251.64 1127.45 248.6 1127.84 248.94 1128.33 248.73 1128.36 248.13 1127.51 247.41 1127.64 244.9 1128.51 245.64 1129 245.43 1129.03 244.83 1127.7 243.71 1127.77 242.43 1129.15 241.83 1130.13 242.65 1130.05 244.38 1130.51 244.76 1131 244.55 1131.05 243.41 1132.98 245.02 1132.93 246.13 1133.39 246.51 1133.87 246.3 1133.9 245.79 1136.23 247.73 1136.72 247.52 1136.75 246.93 1134.41 244.98 1134.84 244.79 1134.87 244.2 1134.41 243.82 1133.49 244.21 1131.56 242.6 1132.5 242.2 1132.54 241.61 1132.08 241.23 1130.64 241.84 1129.66 241.02 1129.75 239.34 1130.8 238.88 1132.14 239.98 1132.63 239.77 1132.66 239.17 1131.78 238.45 1133.84 237.55 1134.7 238.25 1135.18 238.04 1135.22 237.45 1134.82 237.12 1137.31 236.03 1137.34 235.44" style="fill:#27ced4;fill-rule:evenodd"/></g><g id="Shape_5-8" data-name="Shape 5"><polygon points="1003.66 232.73 1002.73 231.96 997.62 234.19 997.69 233.13 996.75 232.35 995.75 232.79 995.61 235.07 991.39 236.91 991.53 234.58 990.6 233.81 989.6 234.25 989.38 237.79 987.24 238.73 984.6 236.53 984.74 233.92 987.63 232.62 987.7 231.41 986.76 230.63 984.87 231.49 985.14 226.36 986.99 225.53 987.06 224.31 986.12 223.54 985.27 223.92 985.6 217.73 984.67 216.96 983.67 217.39 983.34 223.59 982.52 222.91 981.52 223.34 981.46 224.56 983.21 226.03 982.93 231.16 981.14 229.65 980.14 230.09 980.08 231.3 982.8 233.59 982.66 236.19 979.83 237.43 977.82 235.76 977.99 232.22 977.05 231.45 976.05 231.88 975.95 234.2 972 230.92 972.1 228.66 971.17 227.88 970.17 228.32 970.12 229.36 965.35 225.4 964.35 225.84 964.29 227.05 969.07 231.02 968.19 231.39 968.12 232.6 969.06 233.38 970.94 232.58 974.89 235.86 972.96 236.68 972.9 237.89 973.83 238.67 976.77 237.41 978.77 239.08 978.59 242.51 976.44 243.45 973.7 241.22 972.7 241.65 972.64 242.86 974.43 244.33 970.21 246.18 968.46 244.75 967.46 245.18 967.39 246.4 968.2 247.06 963.1 249.29 963.03 250.5 963.97 251.27 969.08 249.04 969.01 250.1 969.95 250.87 970.95 250.44 971.09 248.16 975.31 246.31 975.17 248.65 976.1 249.42 977.1 248.98 977.32 245.44 979.46 244.5 982.1 246.7 981.96 249.31 979.07 250.61 979 251.82 979.93 252.59 981.83 251.74 981.56 256.87 979.71 257.7 979.64 258.91 980.58 259.69 981.43 259.31 981.1 265.5 982.03 266.27 983.03 265.84 983.36 259.63 984.18 260.32 985.17 259.88 985.24 258.67 983.49 257.2 983.77 252.07 985.56 253.58 986.55 253.14 986.62 251.93 983.9 249.64 984.03 247.04 986.87 245.8 988.88 247.47 988.71 251 989.65 251.78 990.64 251.34 990.75 249.03 994.7 252.31 994.6 254.57 995.53 255.34 996.53 254.91 996.58 253.87 1001.35 257.83 1002.35 257.39 1002.41 256.18 997.63 252.21 998.51 251.84 998.58 250.62 997.64 249.85 995.76 250.65 991.81 247.37 993.74 246.55 993.8 245.34 992.87 244.56 989.93 245.81 987.93 244.15 988.11 240.72 990.26 239.78 993 242.01 994 241.58 994.06 240.36 992.27 238.9 996.49 237.05 998.24 238.48 999.24 238.05 999.3 236.83 998.5 236.17 1003.6 233.94 1003.66 232.73" style="fill:#27ced4;fill-rule:evenodd"/></g><g id="Shape_6-4" data-name="Shape 6"><polygon points="1076.86 267.79 1076.53 267.04 1074.42 266.93 1075.38 265.76 1075.06 265.03 1074.17 264.99 1072.65 266.84 1071.83 266.8 1072.64 265.81 1072.32 265.08 1071.43 265.03 1070.74 265.88 1069.78 263.67 1070.87 263.74 1071.44 263.05 1071.12 262.32 1069.84 262.25 1070.37 261.62 1072.76 261.76 1073.33 261.07 1073.01 260.34 1071.5 260.25 1072.85 258.63 1072.52 257.88 1071.61 257.83 1070.26 259.45 1069.7 258.22 1068.81 258.17 1068.24 258.86 1069.12 260.81 1068.59 261.45 1068.12 260.4 1067.23 260.35 1066.66 261.04 1067.06 261.93 1064.38 261.79 1065.09 260.96 1064.77 260.23 1063.88 260.18 1063.05 261.16 1062.75 260.49 1064.31 258.65 1063.99 257.92 1063.1 257.88 1062.12 259.03 1061.36 257.3 1060.44 257.26 1059.86 257.96 1060.61 259.69 1059.1 259.63 1058.53 260.31 1058.85 261.04 1061.25 261.14 1061.54 261.82 1060.26 261.76 1059.69 262.45 1060.01 263.18 1061.1 263.23 1059.38 265.29 1059 264.39 1058.11 264.34 1057.54 265.03 1057.99 266.08 1057.17 266.04 1056.33 264.06 1055.44 264.02 1054.87 264.7 1055.4 265.95 1053.29 265.84 1052.7 266.55 1053.03 267.3 1055.14 267.41 1054.18 268.58 1054.5 269.31 1055.39 269.35 1056.91 267.5 1057.73 267.54 1056.92 268.53 1057.24 269.26 1058.13 269.31 1058.82 268.46 1059.78 270.67 1058.69 270.6 1058.12 271.29 1058.44 272.02 1059.72 272.09 1059.19 272.73 1056.8 272.58 1056.23 273.27 1056.55 274 1058.06 274.09 1056.71 275.71 1057.04 276.46 1057.95 276.51 1059.31 274.89 1059.86 276.12 1060.75 276.17 1061.32 275.48 1060.44 273.53 1060.97 272.89 1061.44 273.94 1062.33 273.99 1062.9 273.3 1062.5 272.41 1065.18 272.55 1064.47 273.38 1064.79 274.11 1065.68 274.16 1066.51 273.18 1066.81 273.85 1065.25 275.69 1065.57 276.42 1066.46 276.46 1067.44 275.31 1068.2 277.04 1069.12 277.08 1069.7 276.38 1068.95 274.65 1070.46 274.71 1071.03 274.03 1070.71 273.3 1068.31 273.2 1068.02 272.52 1069.3 272.58 1069.87 271.89 1069.55 271.16 1068.46 271.12 1070.18 269.05 1070.56 269.95 1071.45 270 1072.02 269.31 1071.57 268.26 1072.39 268.3 1073.23 270.27 1074.12 270.32 1074.69 269.64 1074.16 268.39 1076.27 268.5 1076.86 267.79" style="fill:#27ced4;fill-rule:evenodd"/></g></g></g></g><text transform="translate(116.87 865.02)" style="font-size:37.76329040527344px;font-family:MyriadPro-Regular, Myriad Pro"><tspan style="letter-spacing:-0.004990999472696381em">W</tspan><tspan x="31.76" y="0">hen the </tspan><tspan x="160.98" y="0" style="letter-spacing:-0.0059995434075935765em">g</tspan><tspan x="181.87" y="0" style="letter-spacing:-0.00999492899584016em">r</tspan><tspan x="193.84" y="0">ound is ho</tspan><tspan x="359.12" y="0" style="letter-spacing:-0.002986841653349388em">t</tspan><tspan x="371.51" y="0">, it he</tspan><tspan x="456.55" y="0" style="letter-spacing:-0.003995385588246584em">a</tspan><tspan x="474.6" y="0">ts the air ab</tspan><tspan x="657.52" y="0" style="letter-spacing:-0.006982227241595972em">o</tspan><tspan x="677.99" y="0" style="letter-spacing:-0.00999492899584016em">v</tspan><tspan x="695.78" y="0">e i</tspan><tspan x="731.54" y="0" style="letter-spacing:-0.0029997717037967882em">t</tspan><tspan x="743.93" y="0">.</tspan><tspan x="751.74" y="0" style="letter-spacing:-0.04097532986781044em"> </tspan><tspan x="758.2" y="0" style="letter-spacing:-0.006995157292043372em">T</tspan><tspan x="776.7" y="0">his </tspan><tspan x="829.46" y="0" style="letter-spacing:-0.003995385588246584em">w</tspan><tspan x="857.1" y="0">a</tspan><tspan x="875.3" y="0" style="letter-spacing:0.003995385588246584em">r</tspan><tspan x="887.8" y="0">m air </tspan><tspan x="974.69" y="0" style="letter-spacing:0.004008315638693984em">r</tspan><tspan x="987.19" y="0">ise</tspan><tspan x="1029.9" y="0" style="letter-spacing:-0.010990542880289956em">s</tspan><tspan x="1044.44" y="0">. </tspan></text><text transform="translate(135.97 441.65)" style="font-size:37.76329040527344px;fill:#fff;font-family:MyriadPro-Regular, Myriad Pro"><tspan style="letter-spacing:-0.0059995434075935765em">A</tspan><tspan x="22.88" y="0">s the air </tspan><tspan x="153.62" y="0" style="letter-spacing:0.003995385588246584em">r</tspan><tspan x="166.12" y="0">ise</tspan><tspan x="208.83" y="0" style="letter-spacing:-0.010977612829842557em">s</tspan><tspan x="223.37" y="0">, </tspan><tspan x="239.19" y="0" style="letter-spacing:-0.003995385588246584em">wa</tspan><tspan x="284.88" y="0" style="letter-spacing:-0.005986613357146176em">t</tspan><tspan x="297.16" y="0">er </tspan><tspan x="336.43" y="0" style="letter-spacing:-0.003995385588246584em">v</tspan><tspan x="354.44" y="0">apour </tspan><tspan x="456.02" y="0" style="letter-spacing:-0.0059995434075935765em">c</tspan><tspan x="472.71" y="0">ools and </tspan><tspan x="0" y="45.32" style="letter-spacing:-0.012981770649189548em">f</tspan><tspan x="10.54" y="45.32">o</tspan><tspan x="31.27" y="45.32" style="letter-spacing:0.003995385588246584em">r</tspan><tspan x="43.77" y="45.32">ms a clou</tspan><tspan x="191.8" y="45.32" style="letter-spacing:-0.00999492899584016em">d</tspan><tspan x="212.72" y="45.32">.</tspan><tspan x="220.54" y="45.32" style="letter-spacing:-0.03599726044556146em"> </tspan><tspan x="227.18" y="45.32" style="letter-spacing:-0.004990999472696381em">W</tspan><tspan x="258.94" y="45.32">hen air </tspan><tspan x="375.17" y="45.32" style="letter-spacing:-0.0059995434075935765em">c</tspan><tspan x="391.86" y="45.32" style="letter-spacing:0.000012930050447399948em">o</tspan><tspan x="412.6" y="45.32" style="letter-spacing:-0.004008315638693984em">n</tspan><tspan x="433.4" y="45.32">tinues </tspan><tspan x="538.38" y="45.32" style="letter-spacing:-0.005986613357146176em">t</tspan><tspan x="550.66" y="45.32">o </tspan><tspan x="579.4" y="45.32" style="letter-spacing:0.003995385588246584em">r</tspan><tspan x="591.89" y="45.32">is</tspan><tspan x="615.69" y="45.32" style="letter-spacing:-0.011999086815187153em">e</tspan><tspan x="634.15" y="45.32">, </tspan><tspan x="0" y="90.63">the cloud gets bigger and bigge</tspan><tspan x="504.28" y="90.63" style="letter-spacing:-0.05298734673344499em">r</tspan><tspan x="514.63" y="90.63">. </tspan></text><text transform="translate(17.7 54.19)" style="font-size:37.76329040527344px;font-family:MyriadPro-Regular, Myriad Pro"><tspan style="letter-spacing:0.00999492899584016em">I</tspan><tspan x="9.4" y="0">n the </tspan><tspan x="98.75" y="0" style="letter-spacing:-0.0059995434075935765em">t</tspan><tspan x="111.02" y="0">ops of the cloud</tspan><tspan x="365.01" y="0" style="letter-spacing:-0.010977612829842557em">s</tspan><tspan x="379.55" y="0">, </tspan><tspan x="395.37" y="0" style="letter-spacing:-0.0059995434075935765em">t</tspan><tspan x="407.65" y="0">empe</tspan><tspan x="498.47" y="0" style="letter-spacing:-0.004990999472696381em">r</tspan><tspan x="510.63" y="0" style="letter-spacing:-0.003995385588246584em">a</tspan><tspan x="528.68" y="0">tu</tspan><tspan x="561.98" y="0" style="letter-spacing:-0.00999492899584016em">r</tspan><tspan x="573.96" y="0">e is </tspan><tspan x="0" y="45.32">bel</tspan><tspan x="49.32" y="45.32" style="letter-spacing:-0.006982227241595972em">o</tspan><tspan x="69.79" y="45.32">w f</tspan><tspan x="116.61" y="45.32" style="letter-spacing:-0.00999492899584016em">r</tspan><tspan x="128.58" y="45.32">eezing and the </tspan><tspan x="370.34" y="45.32" style="letter-spacing:-0.004008315638693984em">wa</tspan><tspan x="416.03" y="45.32" style="letter-spacing:-0.005986613357146176em">t</tspan><tspan x="428.3" y="45.32">er </tspan><tspan x="467.58" y="45.32" style="letter-spacing:-0.004008315638693984em">v</tspan><tspan x="485.59" y="45.32">apour </tspan><tspan x="0" y="90.63">tu</tspan><tspan x="33.31" y="90.63" style="letter-spacing:0.003995385588246584em">r</tspan><tspan x="45.81" y="90.63">ns i</tspan><tspan x="98.56" y="90.63" style="letter-spacing:-0.003995385588246584em">n</tspan><tspan x="119.37" y="90.63" style="letter-spacing:-0.0059995434075935765em">t</tspan><tspan x="131.64" y="90.63">o i</tspan><tspan x="169.22" y="90.63" style="letter-spacing:-0.0059995434075935765em">c</tspan><tspan x="185.91" y="90.63" style="letter-spacing:-0.011986156764739752em">e</tspan><tspan x="204.37" y="90.63">.</tspan></text></g></g></svg>